<svg width="161" height="186" viewBox="0 0 161 186" fill="none" xmlns="http://www.w3.org/2000/svg">
<g id="Vector">
<path d="M120.334 119.242H40.3339C29.7252 119.242 19.5511 123.41 12.0497 130.828C4.54825 138.246 0.333984 148.308 0.333984 158.799V185.17H27.0006V158.799C27.0006 155.302 28.4053 151.948 30.9058 149.475C33.4063 147.002 36.7976 145.613 40.3339 145.613H120.334C123.87 145.613 127.261 147.002 129.762 149.475C132.262 151.948 133.667 155.302 133.667 158.799V185.17H160.333V158.799C160.333 148.308 156.119 138.246 148.618 130.828C141.116 123.41 130.942 119.242 120.334 119.242ZM80.3337 106.057C90.882 106.057 101.193 102.964 109.964 97.1682C118.735 91.3728 125.57 83.1357 129.607 73.4983C133.644 63.861 134.7 53.2564 132.642 43.0255C130.584 32.7946 125.505 23.3968 118.046 16.0208C110.587 8.64468 101.084 3.6215 90.7385 1.58644C80.3929 -0.448615 69.6694 0.59585 59.924 4.58776C50.1786 8.57967 41.8491 15.3397 35.9888 24.0131C30.1285 32.6864 27.0006 42.8835 27.0006 53.3149C27.0006 67.3029 32.6196 80.718 42.6215 90.609C52.6234 100.5 66.1889 106.057 80.3337 106.057ZM80.3337 26.944C85.6079 26.944 90.7636 28.4906 95.1489 31.3883C99.5342 34.2859 102.952 38.4045 104.97 43.2232C106.989 48.0418 107.517 53.3442 106.488 58.4596C105.459 63.5751 102.919 68.2739 99.1898 71.962C95.4604 75.65 90.7089 78.1616 85.5361 79.1791C80.3633 80.1967 75.0015 79.6744 70.1289 77.6785C65.2562 75.6825 61.0914 72.3025 58.1613 67.9658C55.2311 63.6291 53.6671 58.5306 53.6671 53.3149C53.6671 46.3209 56.4767 39.6133 61.4776 34.6678C66.4786 29.7223 73.2613 26.944 80.3337 26.944Z" fill="#E63F31" fill-opacity="0.1"/>
<path d="M12.4013 131.184C19.8085 123.858 29.856 119.742 40.3339 119.742H120.334C130.811 119.742 140.859 123.858 148.266 131.184C155.673 138.508 159.833 148.442 159.833 158.799V184.67H134.167V158.799C134.167 155.167 132.708 151.686 130.113 149.12C127.519 146.554 124.001 145.113 120.334 145.113H40.3339C36.6668 145.113 33.1489 146.554 30.5542 149.12C27.9594 151.686 26.5006 155.167 26.5006 158.799V184.67H0.833984V158.799C0.833984 148.442 4.9942 138.508 12.4013 131.184ZM109.688 96.751C101 102.492 90.7844 105.557 80.3337 105.557C66.3197 105.557 52.8808 100.051 42.9731 90.2535C33.0655 80.4558 27.5006 67.1685 27.5006 53.3149C27.5006 42.9837 30.5984 32.884 36.4031 24.293C42.2078 15.702 50.4589 9.00519 60.1135 5.05045C69.7682 1.09568 80.3923 0.0608476 90.642 2.07704C100.892 4.09323 110.306 9.0697 117.694 16.3763C125.083 23.6828 130.114 32.9912 132.152 43.1241C134.19 53.2569 133.144 63.7599 129.146 73.3052C125.148 82.8505 118.377 91.0099 109.688 96.751ZM95.4245 30.9711C90.9572 28.0192 85.7055 26.444 80.3337 26.444C73.1305 26.444 66.2212 29.2737 61.126 34.3123C56.0307 39.3512 53.1671 46.1865 53.1671 53.3149C53.1671 58.6307 54.7612 63.8267 57.747 68.2458C60.7327 72.6647 64.9759 76.108 69.9393 78.1412C74.9027 80.1743 80.3639 80.7061 85.6326 79.6697C90.9014 78.6333 95.7417 76.075 99.5414 72.3175C103.341 68.5599 105.929 63.7717 106.978 58.5582C108.027 53.3447 107.488 47.9407 105.432 43.03C103.375 38.1194 99.892 33.9231 95.4245 30.9711Z" stroke="#E63F31" stroke-opacity="0.1"/>
</g>
</svg>
