<svg width="80" height="80" viewBox="0 0 80 80" fill="none" xmlns="http://www.w3.org/2000/svg">
<g id="Projects">
<g id="Ellipse 9">
<circle cx="40" cy="40" r="40" fill="white"/>
<circle cx="40" cy="40" r="39" stroke="#009EDB" stroke-opacity="0.5" stroke-width="2"/>
</g>
<path id="path6" d="M40.0205 13.9132C38.5186 13.9132 39.1526 16.1494 39.2694 16.8838C39.2694 16.9172 39.3866 21.942 39.42 23.0936C39.6536 23.0269 39.8707 22.976 40.1043 22.9259L40.5543 22.8096C40.5709 21.6913 40.6877 16.9018 40.6877 16.8684C40.7878 16.1006 41.5724 13.9132 40.0205 13.9132ZM41.189 16.3328L41.1719 16.4012C41.1553 16.5181 41.1219 16.6176 41.1052 16.7178C43.6917 16.9681 46.1117 18.1036 47.964 19.9228L46.662 21.2233L46.7116 20.9906L46.5456 20.9067L46.3284 20.9238L46.378 20.7732L46.2274 20.2393L45.9109 19.8886L44.8929 19.3547L44.8091 19.4539L44.626 19.5053C44.9765 20.006 45.1598 20.607 45.1598 21.2079V21.4406L45.6611 22.0754L45.4267 22.125L45.5773 22.3595L45.1273 22.8095L44.9425 22.4758C44.8591 22.7095 44.7424 22.9429 44.6089 23.1432L44.7099 23.227L43.3241 24.5959C43.2406 24.5125 43.1577 24.445 43.0743 24.3615C42.9408 24.4283 42.8074 24.4791 42.674 24.5292L42.7903 24.6113L42.7235 24.6781L42.5576 24.7619L42.4908 24.9296L42.3899 24.8286L42.1059 24.9296L42.1897 25.0631L42.3899 25.0117L42.5233 25.0288L42.5404 24.962L42.6397 24.9124L42.6739 24.8628L42.857 24.8114H42.9904L43.0743 24.8782L42.5405 25.4292L42.5062 25.3796L41.9399 25.4805L41.8065 25.614L41.6884 25.6295L42.0392 25.2958L41.9057 25.229L41.5721 25.6637L41.673 25.6466V25.8143L41.7894 25.8639L41.8065 26.0299L41.6063 25.9974L41.4061 26.0299L40.9048 25.7801C40.9048 25.7801 40.8706 27.1162 40.8706 27.7838C42.0387 28.1844 43.2915 28.7509 43.2915 30.253C43.3081 30.8873 42.9734 31.4888 42.4394 31.8393L42.4069 31.8564L42.3727 31.8889C41.9055 32.206 41.2882 32.3722 40.7542 32.5391L40.7371 33.5915C41.5882 34.0087 42.6063 34.626 42.5062 36.3618C42.4894 36.7958 42.3232 36.912 42.1897 36.9454C41.689 37.0622 41.171 37.1464 40.6704 37.1798V37.5631C42.8731 37.4129 44.9435 36.4946 46.5455 34.9758L47.9142 36.3447C43.5254 40.5841 36.5661 40.5849 32.1606 36.3789L33.5293 35.01C35.1146 36.4955 37.1666 37.3962 39.336 37.5631V37.1798C37.2667 37.0128 35.3306 36.1613 33.8287 34.7259L34.1794 34.3598L34.6807 34.4094L34.9476 34.1253L35.6473 34.1595L35.7483 33.908L35.7158 33.8087C36.7504 34.5932 37.9847 35.0938 39.2863 35.2273V34.8423C37.8512 34.6754 36.5152 34.0748 35.4472 33.09L36.8159 31.7211C37.1496 32.0215 37.5176 32.272 37.9348 32.4723C37.9681 32.3388 38.0014 32.2229 38.0682 32.1061C37.7178 31.9225 37.3836 31.7045 37.0999 31.4542L38.4686 30.0869C38.6855 30.2538 38.9351 30.4039 39.1854 30.4874V30.0698C39.0185 30.0031 38.869 29.903 38.7354 29.8029L39.1187 29.4179C38.9852 29.3845 38.8518 29.3345 38.7183 29.2844L38.4515 29.5531C38.3179 29.4028 38.2013 29.2357 38.1178 29.0688C37.8842 28.9687 37.6504 28.8511 37.4335 28.7009C36.6325 28.2169 36.1491 27.3319 36.1657 26.3806C36.1491 25.7463 36.3328 25.1119 36.7166 24.6112L35.348 23.244C36.3492 22.2759 37.634 21.6574 39.0023 21.4404V21.0572C37.5339 21.2742 36.149 21.9424 35.0811 22.9772L34.8467 22.7427C34.7966 22.8262 34.7304 22.9433 34.6636 23.0935L34.8142 23.2441C33.596 24.5293 32.9109 26.2303 32.8775 27.9994H30.9254C30.9588 25.7129 31.8431 23.5271 33.4284 21.8581L34.046 22.4758H34.1298C34.2466 22.4591 34.3804 22.4249 34.4806 22.3748L33.6953 21.5912C34.1125 21.1906 34.5629 20.8234 35.0469 20.5063C35.0802 20.4061 35.0977 20.3057 35.1478 20.2222C35.2312 20.0887 35.3304 19.9553 35.4472 19.8218C34.7129 20.2224 34.0462 20.7229 33.4455 21.3071L32.0768 19.9382C33.9124 18.1523 36.299 17.0344 38.8689 16.7674C38.8689 16.7174 38.8518 16.6835 38.8518 16.6835C38.8352 16.5834 38.8189 16.5009 38.8022 16.3841C32.3109 17.0517 27.622 22.8429 28.3061 29.3188C28.9403 35.3106 33.9791 39.8677 40.0032 39.851C46.5113 39.851 51.7855 34.5601 51.7688 28.0508C51.7688 22.0089 47.1964 16.9503 41.189 16.3328ZM31.2267 16.8017C29.1074 17.2523 27.3377 19.1203 26.8537 21.4235C27.5212 20.6391 28.6734 20.1892 29.3242 19.4215C29.975 18.637 30.1921 17.5694 31.2267 16.8017ZM48.7475 16.8017C49.7822 17.5694 49.9992 18.637 50.65 19.4215C51.3008 20.2059 52.4359 20.6562 53.1034 21.4406C52.6195 19.1374 50.8502 17.2523 48.7475 16.8017ZM41.5893 17.5358L41.4388 17.635L41.1052 17.6025V17.6863C41.3221 17.703 41.5388 17.7197 41.7057 17.7531L41.9897 17.736L42.2737 17.7531L42.39 17.6521L42.1727 17.5529L41.5893 17.5358ZM41.0555 18.1022C41.0555 18.2857 41.0385 18.7045 41.0385 18.7045C41.0385 18.838 41.0214 19.3213 41.0214 19.4215C41.1549 19.4381 41.3053 19.4544 41.4388 19.471C42.6904 19.7714 43.1411 20.4898 43.1411 21.1908C43.1411 22.3424 42.1561 22.7769 40.9546 23.1107L40.5543 23.2099C40.1872 23.2934 39.8042 23.3939 39.4371 23.494C39.3036 23.5274 39.1703 23.5603 39.0368 23.6103C37.7018 24.0109 36.5492 24.6616 36.5492 26.314C36.5492 27.9663 37.8682 28.5674 39.1531 28.968C39.1531 28.5007 39.1356 28.0168 39.1189 27.5495C38.5348 27.2824 38.1522 26.9324 38.1522 26.3482C38.1522 25.764 38.5186 25.4298 39.0693 25.1795C39.1861 25.1295 39.3194 25.079 39.4696 25.0289C39.7866 24.9121 40.1547 24.8296 40.5218 24.7295L40.9221 24.6285C42.7243 24.1945 44.7591 23.628 44.7425 21.2079C44.7425 19.9895 43.8584 18.6533 41.7057 18.186C41.4887 18.1526 41.2725 18.1188 41.0555 18.1022ZM38.9187 18.287C38.5182 18.4205 38.1186 18.5709 37.7348 18.7712C37.3176 18.9047 36.7166 18.9369 36.0992 19.6046C35.8989 19.8382 35.7148 20.0883 35.5312 20.3386C35.3476 20.6057 35.3311 21.0406 35.1976 21.2575C34.9973 21.5914 35.047 21.7914 35.047 21.7914C35.0136 21.9416 34.9316 22.0921 34.8314 22.209C34.6312 22.4426 34.3294 22.5585 34.0291 22.5084C34.3127 22.6419 34.698 22.4588 34.698 22.4588C34.6313 22.6424 34.5808 22.8262 34.5474 23.0098C34.8645 22.2921 35.1471 22.0426 35.2472 21.9591C35.3807 21.9925 35.6657 21.9755 36.183 21.6751C36.7671 21.3413 37.6504 20.7901 37.9007 20.4396C38.1677 20.0891 38.5186 19.8044 38.9358 19.6542C38.9358 19.1535 38.9187 18.6875 38.9187 18.287ZM27.1873 18.7199C24.3672 20.8229 25.5685 24.1952 25.4183 25.2634C26.8701 22.1089 29.024 22.7769 29.9418 19.7894C29.4078 20.6906 27.0539 21.074 25.9692 23.4273C26.5366 22.0253 26.2529 19.8882 27.1873 18.7199ZM52.8023 18.7199C53.7534 19.8715 53.4697 22.0253 54.0204 23.4273C52.919 21.074 50.5668 20.6898 50.0495 19.7551C50.9673 22.7594 53.1195 22.0914 54.5713 25.2292C54.4211 24.1777 55.6224 20.7895 52.8023 18.7199ZM45.4268 19.1545L45.2266 19.3051L45.4764 19.4386L45.7604 19.6388L45.7946 19.4711L45.6783 19.288L45.4268 19.1545ZM36.5166 19.9725L36.9341 19.9895L36.4499 20.5063L36.1488 20.5731L36.5166 19.9725ZM31.793 20.1898L33.1617 21.557C31.5096 23.2761 30.5757 25.5803 30.5423 27.967H28.6056C28.639 25.0462 29.7738 22.2761 31.793 20.1898ZM48.248 20.2223C50.2505 22.3086 51.3677 25.0796 51.4011 27.967H49.4661C49.4495 26.5316 49.1144 25.1129 48.4635 23.8277L48.4806 23.7935L48.6141 23.8602L48.6483 23.761L48.2976 23.1603L47.8802 22.5923L47.396 22.1918C47.2291 21.9916 47.0629 21.7915 46.8793 21.5912L48.248 20.2223ZM40.9888 21.0077V21.391C41.5395 21.4744 42.0724 21.6236 42.5731 21.8239C42.6398 21.7071 42.6898 21.5917 42.7065 21.4748C42.1558 21.2412 41.5729 21.0912 40.9888 21.0077ZM24.9017 21.5245C22.3151 25.1797 25.0513 27.3659 25.1514 28.7011C25.8022 26.1475 27.3546 26.1314 28.3559 22.7599C28.0889 23.1271 27.9053 23.2927 27.2045 23.8602C26.1532 24.6947 25.4189 25.8802 25.1685 27.1987C25.2353 25.563 24.2342 23.2269 24.9017 21.5245ZM55.0897 21.5245C55.7572 23.2269 54.7556 25.563 54.8057 27.1987C54.5387 25.8802 53.8211 24.6947 52.7698 23.8602C52.0689 23.2761 51.8854 23.1271 51.6184 22.7599C52.6196 26.1314 54.1707 26.1475 54.8382 28.7011C54.9383 27.3826 57.6762 25.1964 55.0897 21.5245ZM34.5303 22.659C34.4469 22.6756 34.3794 22.6928 34.2959 22.6761L34.4807 22.8763C34.4974 22.8095 34.5137 22.7257 34.5303 22.659ZM45.7775 22.7086L46.2446 22.7257L46.3609 22.8591L46.3113 23.0593L46.9632 23.4598L47.0966 23.4443L47.9144 24.3957L48.248 24.2777C48.782 25.4293 49.0645 26.6985 49.0812 27.9669H47.1462C47.1462 27.4662 47.08 26.9828 46.9632 26.4988L47.0452 26.3807L47.1633 25.763L47.0795 25.1127L46.8451 24.3615L46.3113 23.5778L46.4447 23.6446L46.5115 23.5778L46.0786 23.2766L46.0444 23.3776L46.4789 23.9936L46.7287 24.495L46.8964 24.9964L46.946 25.33L47.0298 25.8964L46.8621 25.9135C46.8621 25.9135 46.6791 25.5641 46.6124 25.4139L46.6962 25.2804L46.5285 25.046V24.8286L46.4122 24.6781L46.2616 24.6951C46.2115 24.595 46.1607 24.4945 46.094 24.4111L46.1949 24.4624L46.2274 24.4282L46.1778 24.3118L46.3113 24.2451L46.2617 24.1783L46.0786 24.2451L46.1454 23.9439L46.0273 23.8772L45.9281 24.1116C45.7112 23.7945 45.4769 23.4935 45.2266 23.2098L45.7775 22.7086ZM35.0641 23.4598L36.4328 24.8287C36.1491 25.1458 35.8995 25.4972 35.716 25.8811H35.615L35.4149 25.9307H35.3481L35.1479 26.1138L35.4148 26.0813L35.6475 26.0299L35.5979 26.0967L35.3977 26.2302H35.2985L34.9974 26.4646L34.7134 26.4321L34.296 27.2158L34.3798 27.3664L34.1471 27.6333L34.1129 27.967H33.2455C33.2621 26.2813 33.9127 24.6782 35.0641 23.4598ZM44.9597 23.5111C45.2768 23.8616 45.5614 24.2451 45.8117 24.6456L45.6441 24.6953L45.6611 24.9964L46.1607 25.313C46.2942 25.5967 46.3955 25.8801 46.4789 26.1805L46.3951 26.314L46.212 26.4475L46.1607 26.7315L46.0273 26.7983L45.928 26.9318L45.8271 26.8821H45.644L45.745 26.7316L45.827 26.3483L45.9605 26.2644L45.5944 25.9136L45.3275 26.0146L45.2607 26.2815L45.0931 26.4646L44.91 26.314L44.8433 26.148L44.9425 26.0813L44.9938 26.1805L45.0759 26.1481L45.0434 25.9804H44.9271V26.0471L44.8432 26.0642L44.4258 25.5628L44.2752 25.4465L44.3248 25.3969L44.4583 25.3472L44.3248 25.2959C44.3248 25.2959 44.1755 25.3301 44.1589 25.3301L44.2427 25.4464H44.0254C43.8919 25.2294 43.7577 25.0452 43.5908 24.8783L44.9597 23.5111ZM45.1941 24.0621L44.893 24.211L44.7938 24.3958L44.727 24.5618L44.8605 24.7791L44.8091 24.8784L44.6261 24.9451L44.6431 25.0957L44.9768 24.9965L45.076 24.7962L44.8433 24.4951L44.9596 24.312L45.2762 24.5293L45.3275 24.4779L45.2607 24.4283L45.194 24.2949L45.3274 24.2281L45.1941 24.0621ZM40.5046 25.1453C40.1542 25.2288 39.8033 25.3296 39.4696 25.4465C39.4862 26.0473 39.5705 30.5032 39.5705 30.9872C39.7374 30.9371 39.9028 30.8717 40.053 30.8383C40.1698 30.8049 40.2715 30.7708 40.3883 30.7374C40.3883 30.4203 40.488 25.9464 40.5046 25.1453ZM43.3241 25.1453C43.4576 25.2955 43.5752 25.4473 43.692 25.6142L43.6252 25.8298L43.4422 25.6963L43.2916 25.7305L43.3584 25.864H43.4251L43.3413 26.0642L43.2917 25.9803L43.0744 25.9136L43.2404 25.8811V25.8469L43.0744 25.7305L43.124 25.3626L43.3241 25.1453ZM39.0521 25.597C38.7184 25.7973 38.5521 26.0311 38.5355 26.3482C38.5355 26.6821 38.7359 26.8992 39.0864 27.0995V26.9489L38.8691 26.7144L38.9854 26.4988L39.0864 26.4646C39.0696 26.0807 39.0693 25.6638 39.0693 25.5971L39.0521 25.597ZM23.367 25.6141C22.3157 30.0538 25.1186 30.5707 25.8529 32.44C25.7361 29.7695 27.4389 29.2349 27.3054 26.1805C26.5545 27.6326 25.3687 27.9671 25.5022 30.9547C24.868 28.3009 23.3503 27.2999 23.367 25.6141ZM56.6072 25.6141C56.6239 27.3165 55.1062 28.3013 54.4721 30.9718C54.6056 27.9508 53.4364 27.6326 52.6688 26.1805C52.5186 29.2349 54.2382 29.7695 54.1213 32.44C54.8389 30.5873 57.6585 30.0538 56.6072 25.6141ZM46.5286 26.2815C46.5619 26.3816 46.579 26.4808 46.6124 26.5809L46.4276 27.1319V27.315L46.662 26.9317C46.7121 27.2655 46.7463 27.6161 46.763 27.9499H45.0607L45.0264 27.7993L45.2266 27.6504L45.2608 27.5494L45.3429 27.4827L45.5773 27.4502L45.5944 27.3492L45.3942 27.2483L45.7449 27.0652L46.094 27.0156L46.1778 26.8479L46.3779 26.7315L46.4618 26.5655L46.5286 26.2815ZM34.7647 27.149L35.1805 27.2158L35.2472 27.2826C35.2138 27.4995 35.1972 27.7329 35.1805 27.9499H34.7134L34.4961 27.6659L34.5304 27.2826L34.7647 27.149ZM40.8383 28.1672C40.8215 28.5511 40.8207 29.1009 40.804 29.4848C41.2546 29.6517 41.5551 29.8701 41.5551 30.2206C41.5551 30.6545 41.1053 30.8879 40.7715 31.0214C40.638 31.0714 40.4379 31.1382 40.3712 31.1549C40.1042 31.2384 39.8375 31.3217 39.5705 31.4218C39.437 31.4719 39.3036 31.521 39.1702 31.5878C38.7363 31.8215 38.2514 32.1728 38.2514 32.7736C38.2514 33.4413 38.7358 33.7921 39.2198 34.0758C39.2198 33.959 39.2027 32.9409 39.2027 32.9242C39.2194 32.7239 39.4036 32.5906 39.5705 32.5238C39.8208 32.407 40.0871 32.3061 40.3541 32.2226C40.5043 32.1726 40.6209 32.1226 40.7544 32.0892C41.739 31.7887 42.8742 31.4223 42.8742 30.2206C42.8742 29.0189 41.9062 28.5344 40.8383 28.1672ZM30.9256 28.3332H32.8623C32.8623 28.5168 32.8785 28.701 32.9118 28.9013L32.6775 28.9509L32.6279 29.1853L32.1266 29.8202L32.1437 30.6877L31.6441 30.8537H31.3601C31.0931 30.0359 30.9589 29.2011 30.9256 28.3332ZM47.1462 28.3332H49.0812C49.0144 30.6031 48.1139 32.7563 46.5286 34.3753L46.2617 34.1084L46.4122 33.9424L46.2617 33.1912L46.1607 33.157L46.2275 33.0235L45.911 32.9242L45.8442 33.1912L45.8117 33.5249L45.745 33.5916L45.1599 33.0081C46.378 31.7396 47.0794 30.0857 47.1462 28.3332ZM49.449 28.3332H51.384C51.3172 31.2039 50.1662 33.9582 48.147 36.0112L46.7955 34.6422C48.4475 32.9398 49.3989 30.6865 49.449 28.3332ZM28.6056 28.3502H30.5423C30.559 29.1848 30.7095 30.0371 30.9598 30.8383L30.8417 30.8212L30.7254 30.7048L30.1745 30.6535L30.3422 30.8879L29.8409 30.787L29.9743 30.6706L29.858 30.5542L29.4902 30.7048L29.3567 30.9375L29.408 31.4885L29.8238 32.4896L30.0239 32.8061L30.142 32.8403L29.8238 32.2397L29.757 31.9385L29.8238 31.8718L29.7742 31.7058L29.9573 31.7383L30.2584 32.1729L30.3251 32.2054V31.8888L30.4415 31.9556L30.4757 32.1233L30.7751 32.2054L30.9085 32.1061L30.9599 32.1386V32.3731L31.0933 32.539L31.2593 32.5732L31.6271 33.1739L31.8444 33.2406L31.9111 32.9566C32.295 33.5741 32.7283 34.1589 33.2456 34.6763L31.8769 36.0452C29.8411 33.9923 28.6724 31.2377 28.6056 28.3502ZM33.2455 28.3502H33.8289L33.6954 28.8174L33.8631 29.0022L33.68 29.2845H33.3618L33.3447 29.2691C33.2947 28.9687 33.2622 28.6507 33.2455 28.3502ZM34.3302 28.3502H34.7801L34.8469 28.4837L34.7476 28.9355L34.6981 29.0176L34.864 29.3855L34.7477 29.4522L34.6638 29.3513L34.6313 29.3855L34.7134 29.6028L34.8469 29.8526H34.9136L34.9479 29.6199L34.8811 29.536V29.3855L34.864 29.069L34.965 28.5009L34.864 28.3503H35.1805C35.2473 29.5019 35.7157 30.5873 36.5167 31.4218L35.148 32.7736C35.0145 32.6234 34.8645 32.4738 34.7477 32.3236L34.8144 31.8393L34.6143 31.3722L34.5629 30.6381L34.3303 30.1864L34.3799 29.9023L34.0959 29.3684L33.8632 29.2521L33.9624 28.968L33.8632 28.7507L33.9624 28.5009H34.2293L34.3302 28.3502ZM45.2437 28.3673H46.7287C46.662 30.0197 45.9952 31.5886 44.8605 32.7736L44.6603 32.5734L44.7424 32.3064L44.5935 31.7058L44.2924 32.1558L44.1094 31.9728L44.2428 31.7897L44.4259 31.4218L44.3591 31.3208L44.4755 31.0539L44.4584 30.804L44.3916 30.5542L44.2257 30.5028L44.1589 30.638L44.058 30.6038C44.2082 30.3868 44.3415 30.1359 44.4583 29.9022L44.626 29.8355L44.7269 29.702L44.7765 29.7534L44.8929 29.6199L44.7936 29.5018L44.8757 29.4847L45.0263 29.5532H45.3274L45.5104 29.4522L45.9775 29.3187L45.8937 29.1681L45.8612 28.985L46.111 29.1014L46.2119 29.0518L46.1606 28.8516L45.844 28.9679L45.5104 28.9012L45.2437 28.3673ZM35.5654 28.5846L35.8494 28.8841H36.1163L36.4653 29.1185L36.5663 29.0689L36.816 29.252L36.6997 29.3359L36.9837 29.5189L36.9666 29.3187L37.1172 29.0689L37.2831 29.2349L37.4508 29.4693L37.1497 29.5532L37.2831 29.8201L37.4833 29.702L37.4508 29.6199L37.6014 29.519L37.6834 29.1015C37.8002 29.3518 37.9515 29.5856 38.1351 29.7859L36.7664 31.1549C36.0989 30.4539 35.6822 29.5527 35.5654 28.5846ZM27.1719 29.3512C27.0718 30.9368 26.0027 31.7051 26.7203 34.5925C25.4687 32.1391 23.534 31.2222 22.9667 29.5532C23 34.143 26.6874 34.8265 27.6219 36.0949C26.8376 33.1741 28.2233 32.1552 27.1719 29.3512ZM52.8023 29.3512C51.751 32.1552 53.1366 33.1741 52.3523 36.0949C53.2868 34.8265 56.9742 34.143 57.0076 29.5532C56.4402 31.2389 54.5055 32.1391 53.2539 34.5925C53.9715 31.7051 52.9024 30.9368 52.8023 29.3512ZM40.8211 29.9194C40.8211 30.0028 40.8041 30.3864 40.8041 30.5867C41.021 30.4699 41.1719 30.3703 41.1719 30.2034C41.1719 30.1033 41.039 30.0028 40.8554 29.9194H40.8211ZM43.124 31.7554L43.4747 32.0053L43.7416 32.1387L43.875 32.2722L43.8083 32.339L43.3908 32.2226L43.2574 32.2722L43.0247 32.0891L42.8074 32.0053C42.9242 31.9218 43.0238 31.8389 43.124 31.7554ZM40.3712 32.6059C40.3712 32.6059 40.2203 32.6564 40.1368 32.6897C40.0867 32.7063 39.9375 32.7727 39.8374 32.8061C39.7373 32.8395 39.6201 32.8908 39.6201 32.9241C39.6201 32.9241 39.7194 38.0636 39.7194 38.1637C39.7194 39.2152 40.2549 39.2319 40.2549 38.1637C40.2549 38.097 40.3712 32.6059 40.3712 32.6059ZM28.0223 32.8061C28.2892 34.0245 27.5209 35.8107 28.7391 37.4964C27.4875 36.0944 24.8178 35.7279 23.7331 33.5915C25.0848 38.8156 28.6234 37.7475 30.2087 38.8824C28.9071 36.9964 29.9747 35.7436 28.0223 32.8061ZM51.9349 32.8061C49.9825 35.7436 51.05 36.9964 49.7484 38.8824C51.3504 37.7475 54.8723 38.8156 56.224 33.5915C55.1393 35.7279 52.4867 36.0944 51.2351 37.4964C52.4533 35.8107 51.6846 34.0412 51.9349 32.8061ZM30.2925 33.0747L30.6416 33.624L30.6586 33.5419L30.4927 33.1569L30.2925 33.0747ZM44.8759 33.2903L46.2446 34.6593C45.7439 35.1433 45.1768 35.5768 44.5594 35.9273L44.7424 35.544L44.6757 35.378L44.9426 35.1435V35.0101L44.7099 34.8595L44.893 34.4762L45.177 34.1083L44.893 33.8088H44.6757L44.5422 33.5915C44.6591 33.4913 44.7758 33.3905 44.8759 33.2903ZM33.2951 33.7917L33.7297 34.0415L33.8135 34.1083L33.4953 34.4266C33.3451 34.2764 33.2113 34.1263 33.0778 33.9594L33.2951 33.7917ZM40.7219 33.9748L40.7048 34.7431C41.3056 35.0435 41.8724 35.4769 42.106 36.278C42.2062 34.9428 41.4562 34.3754 40.7219 33.9748ZM29.8905 35.9119C30.5413 36.9133 29.8739 38.1647 31.9264 40.1008C29.9239 38.9158 27.1383 39.4157 25.8033 37.8301C28.1061 42.2364 32.1433 40.4347 33.278 40.9855C32.1933 39.4834 32.9276 38.6324 29.8905 35.9119ZM50.0837 35.9119C47.0299 38.6324 47.7805 39.4834 46.6791 40.9855C47.8305 40.4347 51.8677 42.2364 54.1539 37.8301C52.8355 39.4324 50.0503 38.9158 48.0478 40.1008C50.1003 38.148 49.4329 36.8966 50.0837 35.9119ZM36.9495 40.7014C35.8148 40.7348 34.698 40.9191 33.6133 41.2028C31.7777 41.6868 30.1909 42.0698 28.8058 41.3688C30.1241 42.5371 31.6766 42.971 33.9127 42.7206C35.765 42.5203 37.2675 41.5865 39.0196 41.6032H39.0864C37.985 42.154 36.9994 42.9222 36.1984 43.8568L37.0504 43.9732C37.0504 43.9732 37.9337 42.1869 39.9863 41.7196C42.0388 42.1869 42.9238 43.9732 42.9238 43.9732L43.7758 43.8568C42.9748 42.9222 41.9893 42.154 40.8879 41.6032H40.9546C42.7068 41.5865 44.2092 42.5203 46.0615 42.7206C48.2976 42.9543 49.8335 42.5371 51.1684 41.3688C49.7834 42.0698 48.1966 41.6868 46.3609 41.2028C45.2763 40.9191 44.1595 40.7348 43.0248 40.7014C41.9902 40.6848 40.9542 40.851 39.9863 41.2182C39.0184 40.851 37.9841 40.6847 36.9495 40.7014ZM30.9221 46.3414V53.6994H32.1471V46.3414H30.9221ZM35.8853 46.3414V49.3821H35.8717C35.6431 48.871 35.1328 48.5476 34.568 48.5745C33.4787 48.5745 32.8195 49.5296 32.8195 51.184C32.8195 52.5829 33.343 53.7798 34.5937 53.7798C35.3736 53.7798 35.7367 53.3495 35.9384 52.9191H35.9658C35.9658 53.1747 35.9782 53.4439 36.0051 53.6994H37.1497C37.1228 53.417 37.1086 53.1212 37.1086 52.8387V46.3414H35.8853ZM55.4113 46.3414V53.6994H56.6209V46.3414H55.4113ZM60.6294 46.3414V53.6994H61.839V50.7545C61.839 50.1089 62.0675 49.5704 62.6996 49.5704C63.1972 49.5704 63.3993 49.894 63.3993 50.6741V53.6994H64.6089V50.4448C64.6089 49.4226 64.2601 48.5745 63.117 48.5745C62.3639 48.5745 62.0815 48.9924 61.8664 49.3017H61.839V46.3414H60.6294ZM15.2695 46.853L16.6673 53.7131H18.1472L19.2233 48.0902H19.237L20.272 53.7131H21.7776L23.1908 46.853H22.0479L21.0385 52.1388H21.0248L20.0035 46.8531H18.4688L17.4338 52.1388H17.4218L16.4534 46.8531L15.2695 46.853ZM40.7253 46.853V53.6994H41.9897V50.6741H44.0205V53.7131H45.2711V46.8531H44.0205V49.6371H41.9897V46.8531L40.7253 46.853ZM59.23 47.2295L58.0204 47.6059H58.0067V48.6549H57.1992V49.543H58.0067V52.2997C58.0067 53.3622 58.5172 53.7798 59.4182 53.7798C59.7006 53.7798 59.9839 53.7267 60.2394 53.619V52.7583C60.1049 52.8255 59.9423 52.8661 59.7809 52.8661C59.4312 52.8661 59.23 52.7042 59.23 52.1662V49.5293H60.2394V48.6412H59.23L59.23 47.2295ZM24.9649 48.5625C23.9429 48.5625 22.7475 49.1004 22.734 51.1583C22.734 53.27 23.9295 53.7661 24.9649 53.7661C26.0004 53.7661 27.1839 53.2835 27.1839 51.1583C27.1839 49.1004 26.0004 48.5625 24.9649 48.5625ZM52.3592 48.5625C51.8078 48.5625 51.2554 48.6951 50.7578 48.9372L50.8399 49.9058C51.2433 49.5964 51.7264 49.423 52.224 49.4095C52.9232 49.4095 53.1649 49.8804 53.1649 50.378V50.5663H52.922C51.3755 50.5663 50.2599 50.9158 50.2599 52.2877C50.2599 53.2292 50.9872 53.7661 51.7672 53.7661C52.4933 53.7661 52.8693 53.4165 53.1786 52.9995H53.1923C53.1789 53.2282 53.2053 53.4571 53.259 53.6857H54.3625C54.3222 53.3898 54.2958 53.0935 54.2958 52.7976V50.5919C54.2958 49.3276 53.9326 48.5625 52.3592 48.5625ZM30.1967 48.5745C29.4302 48.5745 29.053 49.1803 28.905 49.5704H28.8914C28.8914 49.261 28.8655 48.9505 28.852 48.6412H27.7486C27.7754 48.9236 27.7896 49.1938 27.7896 49.4762L27.8033 53.7131H29.0129V50.941C29.0129 49.9995 29.564 49.6919 30.0616 49.6919C30.1692 49.6919 30.2911 49.7181 30.3987 49.7449V48.6018C30.3315 48.5884 30.264 48.5745 30.1967 48.5745ZM47.9623 48.5745C46.6713 48.5745 45.8767 49.746 45.8767 51.2524C45.8767 52.6109 46.59 53.7798 48.2172 53.7798C48.7282 53.7798 49.252 53.6733 49.7227 53.4581L49.6816 52.5153C49.453 52.6767 49.0902 52.9054 48.3506 52.9054C47.4093 52.9054 47.0606 52.3819 47.0606 51.5211H49.9776V51.2781C49.9776 49.2068 49.0516 48.5745 47.9623 48.5745ZM47.9469 49.3958C48.4982 49.3958 48.7954 49.8531 48.7954 50.7408H47.0469C47.0469 50.0683 47.3014 49.3958 47.9469 49.3958ZM24.9649 49.4351C25.7584 49.4351 25.9333 50.3229 25.9333 51.1703C25.9333 52.0176 25.7449 52.9191 24.9649 52.9191C24.185 52.9191 23.9966 52.0176 23.9966 51.1703C23.9966 50.3229 24.1715 49.4351 24.9649 49.4351ZM34.9307 49.4625C35.6031 49.4625 35.8716 50.1764 35.8716 51.1583C35.8716 52.0998 35.6297 52.878 34.917 52.878C34.2177 52.878 34.0288 52.3011 34.0154 51.1309C34.0154 50.1221 34.2583 49.4625 34.9307 49.4625ZM53.0435 51.225H53.0452H53.1513H53.1649V51.5193C53.1649 52.4205 52.8971 52.9601 52.1709 52.9601H52.0751C51.6717 52.9332 51.3639 52.5834 51.3908 52.1798C51.3908 51.4401 52.008 51.225 53.0435 51.225ZM39.0316 55.2736V56.4697H40.2959V55.2736H39.0316ZM53.4079 55.2736V56.4697H54.6585V55.2736H53.4079ZM18.0531 55.5286C16.6276 55.5286 15.3226 56.5905 15.3226 59.0519C15.3226 61.5133 16.6276 62.5769 18.0531 62.5769C19.4785 62.5769 20.7836 61.5133 20.7836 59.0519C20.7836 56.5905 19.4785 55.5286 18.0531 55.5286ZM51.6594 56.0129L50.4498 56.3893L50.4344 57.4246H49.6286V58.3127H50.4344V61.0848C50.4344 62.1339 50.9466 62.5495 51.8476 62.5495C52.13 62.5629 52.4116 62.5098 52.6671 62.3887V61.528C52.5326 61.6087 52.3717 61.6358 52.2103 61.6358C51.8606 61.6358 51.6594 61.4739 51.6594 60.9359V58.3127H52.6671V57.4246H51.6594L51.6594 56.0129ZM18.0531 56.4971C18.8465 56.4971 19.4919 57.1554 19.4919 59.0519C19.4919 60.9484 18.8465 61.6221 18.0531 61.6221C17.2596 61.6221 16.6143 60.9349 16.6143 59.0519C16.6143 57.1688 17.2596 56.4971 18.0531 56.4971ZM31.1907 57.3442C30.6394 57.3442 30.0887 57.4668 29.5911 57.7223L29.6715 58.6891C30.0749 58.3798 30.5597 58.2046 31.0573 58.1912C31.7566 58.1912 31.9983 58.662 31.9983 59.1597V59.3479H31.757C30.2105 59.3479 29.0932 59.6974 29.0932 61.0694C29.0932 62.0109 29.8188 62.5495 30.5988 62.5495C31.325 62.5495 31.7026 62.1999 32.0119 61.7829H32.0256C32.0122 62.0116 32.0386 62.2405 32.0924 62.4691H33.1941C33.1538 62.1732 33.1274 61.8769 33.1274 61.581V59.3753C33.1274 58.111 32.7641 57.3442 31.1907 57.3442ZM47.1941 57.3442C46.6427 57.3442 46.092 57.4668 45.5944 57.7223L45.6748 58.6891C46.0783 58.3798 46.563 58.2046 47.0606 58.1912C47.7599 58.1912 48.0016 58.662 48.0016 59.1597V59.3479H47.7587C46.2122 59.3479 45.0966 59.6974 45.0966 61.0694C45.0966 62.0109 45.8239 62.5495 46.6038 62.5495C47.33 62.5495 47.706 62.1999 48.0153 61.7829H48.0289C48.0155 62.0116 48.042 62.2405 48.0957 62.4691H49.1975C49.1572 62.1732 49.1307 61.8769 49.1307 61.581V59.3753C49.1307 58.111 48.7675 57.3442 47.1941 57.3442ZM57.5482 57.3442C56.5261 57.3442 55.3307 57.8955 55.3172 59.94C55.3172 62.0651 56.5127 62.5495 57.5482 62.5495C58.5837 62.5495 59.7689 62.0651 59.7689 59.94C59.7689 57.8821 58.5837 57.3442 57.5482 57.3442ZM23.7006 57.3578C22.9475 57.3578 22.5586 57.9636 22.4106 58.3537H22.397C22.397 58.0443 22.3693 57.7339 22.3559 57.4245H21.2541C21.281 57.707 21.2934 57.9771 21.2934 58.2596V62.4964H22.5047V59.726C22.5047 58.7845 23.0559 58.4735 23.5535 58.4735C23.6745 58.4735 23.7949 58.5014 23.9025 58.5282V57.3852C23.8353 57.3718 23.7679 57.3578 23.7006 57.3578ZM26.0411 57.3578C24.7097 57.3578 24.2122 58.5822 24.2122 59.981C24.2122 62.0255 25.275 62.4964 25.9743 62.4964C26.7678 62.4964 27.1037 62.0258 27.3054 61.6357H27.319V62.12C27.319 62.9135 27.1294 63.7062 25.9863 63.7062C25.4618 63.6928 24.9517 63.5457 24.4944 63.2767L24.4413 64.353C24.9927 64.5548 25.5827 64.661 26.1744 64.661C28.0302 64.661 28.5149 63.5463 28.5149 61.9591V58.2322C28.5149 57.9632 28.5426 57.7072 28.556 57.4382H27.4542C27.4408 57.6938 27.4131 57.9495 27.4131 58.2185H27.372C27.1165 57.7746 26.7807 57.3578 26.0411 57.3578ZM36.6107 57.3578C35.7904 57.3578 35.4408 57.8955 35.266 58.2048H35.2523C35.2523 57.9493 35.2264 57.6801 35.213 57.4245H34.0684C34.0953 57.707 34.1095 57.9771 34.1095 58.2596V62.469H35.3208V59.5241C35.3208 58.8785 35.5493 58.34 36.1814 58.34C36.679 58.34 36.8794 58.6619 36.8794 59.442V62.4827H38.1044V59.2264C38.1044 58.2042 37.7538 57.3578 36.6107 57.3578ZM63.2368 57.3578C62.4164 57.3578 62.0686 57.8955 61.8937 58.2048H61.8801C61.8801 57.9493 61.8525 57.6801 61.839 57.4245H60.6961C60.723 57.707 60.7372 57.9771 60.7372 58.2596L60.7492 62.469H61.9605V59.5241C61.9605 58.8785 62.189 58.34 62.8211 58.34C63.3187 58.34 63.5208 58.6619 63.5208 59.442V62.4827H64.7304V59.2264C64.7304 58.2042 64.3798 57.3578 63.2368 57.3578ZM39.059 57.4246V62.4828H40.2685V57.4246H39.059ZM41.2916 57.4246V58.3537H43.3891L41.2232 61.4338H41.2095V62.4828H44.6672V61.5536H42.4739L44.5987 58.4615V57.4246H41.2916ZM53.4336 57.4246L53.4472 62.4828H54.6585V57.4246H53.4336ZM57.5482 58.2185C58.3416 58.2185 58.5165 59.1063 58.5165 59.9537C58.5165 60.801 58.3282 61.7025 57.5482 61.7025C56.7682 61.7025 56.5815 60.801 56.5815 59.9537C56.5815 59.1063 56.7547 58.2185 57.5482 58.2185ZM26.3507 58.2853C26.929 58.2719 27.3328 58.8363 27.3328 59.8989C27.3328 61.0422 27.0232 61.5947 26.2566 61.5947C25.8398 61.5947 25.4628 61.0979 25.4628 59.9143C25.4628 58.8921 25.7052 58.2987 26.3507 58.2853ZM31.8768 60.0067H31.9846L31.9982 60.3045C31.9982 61.2057 31.7287 61.7418 31.0025 61.7418H30.9084C30.505 61.715 30.1955 61.3651 30.2224 60.9616C30.2224 60.2218 30.8413 60.0067 31.8768 60.0067ZM47.8801 60.0067H47.9879H48.0016V60.3045C48.0016 61.2057 47.732 61.7418 47.0058 61.7418H46.9118C46.5083 61.715 46.1988 61.3651 46.2257 60.9616C46.2257 60.2218 46.8447 60.0067 47.8801 60.0067Z" fill="#009EDB"/>
</g>
</svg>
